<?xml version="1.0" encoding="UTF-8" standalone="no"?>
<!-- Created with Inkscape (http://www.inkscape.org/) -->

<svg
   width="255.99998"
   height="255.99998"
   viewBox="0 0 67.733328 67.733329"
   version="1.1"
   id="svg5"
   xmlns="http://www.w3.org/2000/svg"
   xmlns:svg="http://www.w3.org/2000/svg">
  <defs
     id="defs2" />
  <rect
     style="fill:#000000;stroke:none;stroke-width:1.32292;stroke-dasharray:none;stroke-opacity:1"
     id="rect2423"
     width="67.73333"
     height="67.73333"
     x="0"
     y="0"
     ry="15.875"
     rx="15.875" />
  <path
     d="m 39.576054,51.401486 q 9.496546,0 13.195575,-9.532115 l 9.14087,3.450058 q -2.952108,7.255785 -8.678493,10.812543 -5.690813,3.521192 -13.657952,3.521192 -12.092979,0 -18.70855,-6.828977 Q 14.2875,45.959642 14.2875,33.65326 q 0,-12.341955 6.3666,-18.957526 6.366597,-6.6155698 18.459577,-6.6155698 8.820763,0 14.369303,3.5567588 5.548545,3.521191 7.789302,10.385735 l -9.247573,2.525301 q -1.173729,-3.770166 -4.623787,-5.975358 -3.414487,-2.240756 -8.073841,-2.240756 -7.113517,0 -10.812545,4.410381 -3.663463,4.410381 -3.663463,12.911034 0,8.642922 3.770166,13.195574 3.805732,4.552652 10.954815,4.552652 z"
     style="font-weight:bold;font-size:28.2223px;font-family:'Liberation Sans';-inkscape-font-specification:'Liberation Sans Bold';fill:#0000ff;stroke-width:3.41449"
     id="path3602" />
  <path
     id="path3696"
     d="m 31.011439,16.304884 q 0,3.624251 -2.011941,5.691314 -2.011941,2.053282 -5.56729,2.053282 -3.486446,0 -5.470826,-2.067063 -1.984381,-2.067063 -1.984381,-5.677533 0,-3.596689 1.984381,-5.649972 1.98438,-2.0670621 5.553509,-2.0670621 3.651811,0 5.567289,1.9981601 1.929259,1.98438 1.929259,5.718874 z m -4.051443,0 q 0,-2.659621 -0.868167,-3.858517 -0.868166,-1.198897 -2.521816,-1.198897 -3.527788,0 -3.527788,5.057414 0,2.494256 0.854386,3.803396 0.868167,1.29536 2.494256,1.29536 3.569129,0 3.569129,-5.098756 z m -15.695898,7.717035 q -1.7087714,0 -2.6320591,-0.923288 Q 7.7087508,22.161563 7.7087508,20.273645 V 11.481737 H 5.8208333 V 8.8634589 H 7.9016767 L 9.1143539,5.3632331 h 2.4253531 v 3.5002258 h 2.824986 v 2.6182781 h -2.824986 v 7.744596 q 0,1.088653 0.413412,1.612309 0.413413,0.509876 1.281579,0.509876 0.454754,0 1.29536,-0.192926 v 2.397793 q -1.433164,0.468534 -3.26596,0.468534 z"
     style="font-weight:bold;font-size:28.2223px;font-family:'Liberation Sans';-inkscape-font-specification:'Liberation Sans Bold';fill:#ffffff;stroke-width:1.32292" />
</svg>
